<svg width="192" height="51" viewBox="0 0 192 51" fill="none" xmlns="http://www.w3.org/2000/svg">
<path fill-rule="evenodd" clip-rule="evenodd" d="M84.2734 29.0457C82.7191 29.0457 81.4568 30.3118 81.4568 31.8731C81.4568 33.4306 82.7191 34.7117 84.2734 34.7117C84.5772 34.7117 84.8762 34.6632 85.1635 34.5661C89.7506 41.6253 98.8525 43.2538 105.517 39.4329C105.712 39.3208 105.788 39.0407 105.676 38.8465C105.565 38.6523 105.287 38.5738 105.092 38.6859C98.827 42.279 90.2744 40.7887 85.9208 34.1664C86.6283 33.651 87.0899 32.8143 87.0899 31.8731C87.0899 30.3118 85.8277 29.0457 84.2734 29.0457Z" fill="#00ADB5"/>
<path fill-rule="evenodd" clip-rule="evenodd" d="M105.517 13.1352C105.162 13.1804 105.055 13.7665 105.371 13.9353C110.387 17.0052 113.188 23.0123 111.96 29.0866C111.814 29.0605 111.661 29.0455 111.509 29.0455C109.954 29.0455 108.692 30.3117 108.692 31.8729C108.692 33.4305 109.954 34.7116 111.509 34.7116C113.063 34.7116 114.325 33.4305 114.325 31.8729C114.325 30.7711 113.695 29.8149 112.771 29.3518C114.118 22.8931 111.153 16.4725 105.809 13.2021C105.738 13.1565 105.654 13.1334 105.57 13.1352C105.552 13.1341 105.535 13.1341 105.517 13.1352Z" fill="#00ADB5"/>
<path fill-rule="evenodd" clip-rule="evenodd" d="M97.8911 8.57434C96.3924 8.57434 95.174 9.75835 95.0879 11.2415C88.6646 12.4345 83.9844 17.5363 82.9182 23.5904C82.8849 23.7436 82.9379 23.9027 83.0563 24.005C83.1747 24.1074 83.3394 24.1376 83.4853 24.0801C83.6312 24.0244 83.7348 23.8926 83.7552 23.7372C84.7566 18.0506 89.1293 13.2525 95.1542 12.095C95.463 13.322 96.5745 14.2288 97.8911 14.2288C99.4454 14.2288 100.708 12.9619 100.708 11.4014C100.708 9.84129 99.4454 8.57434 97.8911 8.57434Z" fill="#00ADB5"/>
<path d="M26.8893 14.2661V38H23.7682V20.3025L15.8798 38H13.6847L5.76199 20.2682V38H2.64091V14.2661H6.00208L14.7823 33.8843L23.5624 14.2661H26.8893ZM49.3312 27.8822C49.3312 28.4767 49.2969 29.1055 49.2283 29.7686H34.2059C34.3203 31.6207 34.949 33.0726 36.0923 34.1244C37.2584 35.1533 38.6646 35.6678 40.3109 35.6678C41.6599 35.6678 42.7803 35.3591 43.6721 34.7417C44.5867 34.1015 45.2269 33.2555 45.5927 32.2037H48.9539C48.4509 34.01 47.4448 35.4848 45.9357 36.6281C44.4266 37.7485 42.5517 38.3087 40.3109 38.3087C38.5274 38.3087 36.9269 37.9085 35.5092 37.1083C34.1145 36.308 33.017 35.1762 32.2167 33.7128C31.4164 32.2266 31.0163 30.5117 31.0163 28.5682C31.0163 26.6246 31.405 24.9212 32.1824 23.4578C32.9598 21.9945 34.0459 20.8741 35.4406 20.0967C36.8583 19.2964 38.4817 18.8963 40.3109 18.8963C42.0944 18.8963 43.6721 19.285 45.044 20.0624C46.4159 20.8398 47.4677 21.9144 48.1993 23.2863C48.9539 24.6354 49.3312 26.1673 49.3312 27.8822ZM46.1072 27.2306C46.1072 26.0416 45.8442 25.0241 45.3183 24.1781C44.7925 23.3092 44.0722 22.6576 43.1576 22.2231C42.2659 21.7658 41.2712 21.5372 40.1737 21.5372C38.596 21.5372 37.247 22.0402 36.1266 23.0463C35.0291 24.0523 34.4003 25.4471 34.2402 27.2306H46.1072ZM57.2579 21.7772V32.8554C57.2579 33.77 57.4523 34.4216 57.841 34.8103C58.2297 35.1762 58.9042 35.3591 59.8645 35.3591H62.1625V38H59.3501C57.6123 38 56.309 37.5999 55.4402 36.7996C54.5713 35.9993 54.1368 34.6846 54.1368 32.8554V21.7772H51.7017V19.2049H54.1368V14.4719H57.2579V19.2049H62.1625V21.7772H57.2579ZM69.0651 22.2574C69.6139 21.1828 70.3913 20.3482 71.3974 19.7537C72.4263 19.1592 73.6724 18.862 75.1358 18.862V22.0859H74.3127C70.8143 22.0859 69.0651 23.9837 69.0651 27.7793V38H65.9441V19.2049H69.0651V22.2574Z" fill="#393E46"/>
<path d="M124.374 12.6198V38H121.253V12.6198H124.374ZM128.528 28.5339C128.528 26.6132 128.916 24.9326 129.694 23.4921C130.471 22.0288 131.534 20.8969 132.883 20.0967C134.255 19.2964 135.776 18.8963 137.445 18.8963C139.091 18.8963 140.52 19.2507 141.732 19.9595C142.944 20.6683 143.847 21.56 144.442 22.6347V19.2049H147.597V38H144.442V34.5016C143.824 35.5992 142.898 36.5138 141.664 37.2455C140.452 37.9543 139.034 38.3087 137.411 38.3087C135.742 38.3087 134.232 37.8971 132.883 37.074C131.534 36.2508 130.471 35.0961 129.694 33.6099C128.916 32.1237 128.528 30.4317 128.528 28.5339ZM144.442 28.5682C144.442 27.1505 144.156 25.9158 143.584 24.864C143.013 23.8122 142.235 23.012 141.252 22.4632C140.292 21.8916 139.228 21.6058 138.062 21.6058C136.896 21.6058 135.833 21.8801 134.873 22.4289C133.912 22.9777 133.146 23.7779 132.575 24.8297C132.003 25.8815 131.717 27.1162 131.717 28.5339C131.717 29.9744 132.003 31.2319 132.575 32.3066C133.146 33.3584 133.912 34.1701 134.873 34.7417C135.833 35.2905 136.896 35.5649 138.062 35.5649C139.228 35.5649 140.292 35.2905 141.252 34.7417C142.235 34.1701 143.013 33.3584 143.584 32.3066C144.156 31.2319 144.442 29.9858 144.442 28.5682ZM155.992 22.7033C156.633 21.5829 157.57 20.6683 158.805 19.9595C160.04 19.2507 161.446 18.8963 163.023 18.8963C164.716 18.8963 166.236 19.2964 167.585 20.0967C168.934 20.8969 169.997 22.0288 170.775 23.4921C171.552 24.9326 171.941 26.6132 171.941 28.5339C171.941 30.4317 171.552 32.1237 170.775 33.6099C169.997 35.0961 168.923 36.2508 167.551 37.074C166.202 37.8971 164.693 38.3087 163.023 38.3087C161.4 38.3087 159.971 37.9543 158.736 37.2455C157.524 36.5366 156.61 35.6335 155.992 34.5359V38H152.871V12.6198H155.992V22.7033ZM168.751 28.5339C168.751 27.1162 168.465 25.8815 167.894 24.8297C167.322 23.7779 166.545 22.9777 165.562 22.4289C164.601 21.8801 163.538 21.6058 162.372 21.6058C161.229 21.6058 160.165 21.8916 159.182 22.4632C158.222 23.012 157.444 23.8237 156.85 24.8983C156.278 25.9501 155.992 27.1734 155.992 28.5682C155.992 29.9858 156.278 31.2319 156.85 32.3066C157.444 33.3584 158.222 34.1701 159.182 34.7417C160.165 35.2905 161.229 35.5649 162.372 35.5649C163.538 35.5649 164.601 35.2905 165.562 34.7417C166.545 34.1701 167.322 33.3584 167.894 32.3066C168.465 31.2319 168.751 29.9744 168.751 28.5339ZM182.703 38.3087C181.262 38.3087 179.97 38.0686 178.827 37.5884C177.684 37.0854 176.781 36.3994 176.118 35.5306C175.455 34.6388 175.089 33.6213 175.02 32.4781H178.244C178.336 33.4156 178.77 34.1815 179.547 34.776C180.348 35.3705 181.388 35.6678 182.669 35.6678C183.857 35.6678 184.795 35.4048 185.481 34.8789C186.167 34.353 186.51 33.6899 186.51 32.8897C186.51 32.0665 186.144 31.4606 185.412 31.0719C184.681 30.6603 183.549 30.2602 182.017 29.8715C180.622 29.5056 179.479 29.1398 178.587 28.774C177.718 28.3852 176.964 27.8251 176.323 27.0934C175.706 26.3388 175.397 25.3556 175.397 24.1438C175.397 23.1834 175.683 22.3031 176.255 21.5029C176.826 20.7026 177.638 20.0738 178.69 19.6165C179.742 19.1363 180.942 18.8963 182.291 18.8963C184.372 18.8963 186.053 19.4221 187.333 20.4739C188.613 21.5257 189.299 22.9662 189.391 24.7954H186.27C186.201 23.8122 185.801 23.0234 185.069 22.4289C184.361 21.8344 183.4 21.5372 182.188 21.5372C181.068 21.5372 180.176 21.7772 179.513 22.2574C178.85 22.7376 178.518 23.3664 178.518 24.1438C178.518 24.7611 178.713 25.2756 179.102 25.6872C179.513 26.0759 180.016 26.396 180.611 26.6475C181.228 26.8762 182.074 27.1391 183.149 27.4363C184.498 27.8022 185.595 28.168 186.441 28.5339C187.287 28.8768 188.007 29.4027 188.602 30.1116C189.219 30.8204 189.539 31.7464 189.562 32.8897C189.562 33.9186 189.277 34.8446 188.705 35.6678C188.133 36.4909 187.322 37.1426 186.27 37.6227C185.241 38.08 184.052 38.3087 182.703 38.3087Z" fill="#393E46"/>
</svg>
